<svg width="366" height="352" viewBox="0 0 366 352" fill="none" xmlns="http://www.w3.org/2000/svg">
<path d="M180.125 0.10752C212.996 -1.91938 239.969 25.1402 266.205 45.0265C291.017 63.8339 311.904 86.1421 328.428 112.518C346.139 140.788 369.54 170.492 365.55 203.603C361.569 236.642 330.653 258.756 307.879 283.04C288.346 303.869 267.828 323.363 241.933 335.42C216.574 347.228 188.972 350.829 161.001 351.431C131.295 352.07 99.4859 354.723 74.2662 339.029C48.9245 323.259 37.3465 293.399 24.4895 266.479C11.8831 240.084 -1.30549 212.961 0.103818 183.749C1.5167 154.463 14.3736 126.688 32.3517 103.513C49.5734 81.3132 76.728 71.4038 99.7551 55.2905C126.842 36.3362 147.118 2.14292 180.125 0.10752Z" fill="#FF2C62"/>
</svg>
